<svg xmlns="http://www.w3.org/2000/svg" width="259.404" height="493.958" viewBox="0 0 68.634 130.693"><path d="M-6.607 77.747l-6.284-3.678-.029-.769c-.016-.423-.031-3.734-.035-7.36l-.005-6.59 2.004-1.17c1.102-.643 2.037-1.17 2.078-1.17.047 0 .074.043.074.12 0 .11.014.117.26.117.257 0 .26.002.26.142 0 .126.015.142.141.142.12 0 .142.018.142.118 0 .111.014.118.26.118.245 0 .26-.007.26-.118 0-.112.014-.118.26-.118.257 0 .26-.002.26-.142 0-.14.002-.142.26-.142.245 0 .26-.006.26-.118 0-.1.021-.118.14-.118.127 0 .143-.016.143-.142 0-.14.002-.142.26-.142.257 0 .26 0 .26-.141 0-.14.002-.142.26-.142.245 0 .259-.006.259-.118 0-.112.014-.118.26-.118.257 0 .26-.002.26-.142 0-.126.015-.142.141-.142.12 0 .142-.018.142-.118 0-.112.014-.118.26-.118.257 0 .26-.001.26-.142 0-.14.003-.141.26-.141s.26-.002.26-.142v-.142h.283c.271 0 .284-.005.284-.118 0-.095.023-.118.118-.118.1 0 .118-.022.118-.142 0-.14.002-.142.26-.142.245 0 .26-.006.26-.118 0-.113.012-.118.283-.118h.284v-.142c0-.12.018-.141.118-.141.1 0 .118-.022.118-.142 0-.14.002-.142.26-.142.245 0 .26-.006.26-.118 0-.113.012-.118.283-.118h.283v-.142c0-.14.003-.142.26-.142.246 0 .26-.006.26-.118 0-.094.024-.118.118-.118.1 0 .118-.022.118-.142 0-.138.005-.141.24-.141.227 0 .369.075 2.97 1.57 1.502.865 2.713 1.579 2.69 1.587-.022.009-.041.078-.041.154 0 .137-.002.138-.283.138-.271 0-.284.005-.284.118 0 .112-.014.118-.26.118-.257 0-.26.001-.26.142 0 .14-.002.141-.26.141-.257 0-.26.002-.26.142 0 .126-.015.142-.141.142-.12 0-.142.018-.142.118 0 .112-.014.118-.26.118-.257 0-.26.002-.26.142 0 .14-.002.142-.26.142-.245 0-.26.006-.26.118 0 .111-.013.118-.26.118-.256 0-.259.001-.259.142 0 .126-.016.141-.142.141s-.141.016-.141.142c0 .14-.003.142-.26.142-.246 0-.26.006-.26.118 0 .112-.014.118-.26.118-.257 0-.26.001-.26.142 0 .14-.003.142-.26.142-.245 0-.26.006-.26.118 0 .1-.022.118-.141.118-.126 0-.142.016-.142.142 0 .14-.003.141-.256.141-.16 0-.263.022-.275.058-.013.038-.136-.012-.359-.144-.187-.111-.355-.194-.375-.184L-3.5 60.982l-3.177 1.86v2.365c0 1.3.014 3.018.031 3.819l.031 1.455 2.733 1.64 2.733 1.639v2.008h.26c.257 0 .26.001.26.142 0 .126.015.141.141.141.12 0 .142.019.142.119 0 .111.014.118.26.118.257 0 .26.001.26.141 0 .14.002.142.26.142.257 0 .26.002.26.142v.142h.283c.27 0 .283.005.283.118 0 .094.024.118.118.118.1 0 .119.022.119.142 0 .14.002.141.26.141.245 0 .26.007.26.119 0 .112.012.118.283.118h.283v.141c0 .12.019.142.118.142.1 0 .119.022.119.142 0 .14.002.142.26.142.245 0 .26.006.26.118 0 .113.012.118.283.118h.283v.142c0 .14.002.141.27.141h.27L2.15 80.016c-1.263.725-2.336 1.34-2.385 1.364-.071.038-1.235-.626-6.371-3.633z" fill="none"/><path d="M-6.607 77.747l-6.284-3.678-.029-.769c-.016-.423-.031-3.734-.035-7.36l-.005-6.59 2.004-1.17c1.102-.643 2.037-1.17 2.078-1.17.047 0 .074.043.074.12 0 .11.014.117.26.117.257 0 .26.002.26.142 0 .126.015.142.141.142.12 0 .142.018.142.118 0 .111.014.118.26.118.245 0 .26-.007.26-.118 0-.112.014-.118.26-.118.257 0 .26-.002.26-.142 0-.14.002-.142.26-.142.245 0 .26-.006.26-.118 0-.1.021-.118.14-.118.127 0 .143-.016.143-.142 0-.14.002-.142.26-.142.257 0 .26 0 .26-.141 0-.14.002-.142.26-.142.245 0 .259-.006.259-.118 0-.112.014-.118.26-.118.257 0 .26-.002.26-.142 0-.126.015-.142.141-.142.12 0 .142-.018.142-.118 0-.112.014-.118.26-.118.257 0 .26-.001.26-.142 0-.14.003-.141.26-.141s.26-.002.26-.142v-.142h.283c.271 0 .284-.005.284-.118 0-.095.023-.118.118-.118.1 0 .118-.022.118-.142 0-.14.002-.142.26-.142.245 0 .26-.006.26-.118 0-.113.012-.118.283-.118h.284v-.142c0-.12.018-.141.118-.141.1 0 .118-.022.118-.142 0-.14.002-.142.26-.142.245 0 .26-.006.26-.118 0-.113.012-.118.283-.118h.283v-.142c0-.14.003-.142.26-.142.246 0 .26-.006.26-.118 0-.094.024-.118.118-.118.1 0 .118-.022.118-.142 0-.138.005-.141.24-.141.227 0 .369.075 2.97 1.57 1.502.865 2.713 1.579 2.69 1.587-.022.009-.041.078-.041.154 0 .137-.002.138-.283.138-.271 0-.284.005-.284.118 0 .112-.014.118-.26.118-.257 0-.26.001-.26.142 0 .14-.002.141-.26.141-.257 0-.26.002-.26.142 0 .126-.015.142-.141.142-.12 0-.142.018-.142.118 0 .112-.014.118-.26.118-.257 0-.26.002-.26.142 0 .14-.002.142-.26.142-.245 0-.26.006-.26.118 0 .111-.013.118-.26.118-.256 0-.259.001-.259.142 0 .126-.016.141-.142.141s-.141.016-.141.142c0 .14-.003.142-.26.142-.246 0-.26.006-.26.118 0 .112-.014.118-.26.118-.257 0-.26.001-.26.142 0 .14-.003.142-.26.142-.245 0-.26.006-.26.118 0 .1-.022.118-.141.118-.126 0-.142.016-.142.142 0 .14-.003.141-.256.141-.16 0-.263.022-.275.058-.013.038-.136-.012-.359-.144-.187-.111-.355-.194-.375-.184L-3.5 60.982l-3.177 1.86v2.365c0 1.3.014 3.018.031 3.819l.031 1.455 2.733 1.64 2.733 1.639v2.008h.26c.257 0 .26.001.26.142 0 .126.015.141.141.141.12 0 .142.019.142.119 0 .111.014.118.26.118.257 0 .26.001.26.141 0 .14.002.142.26.142.257 0 .26.002.26.142v.142h.283c.27 0 .283.005.283.118 0 .094.024.118.118.118.1 0 .119.022.119.142 0 .14.002.141.26.141.245 0 .26.007.26.119 0 .112.012.118.283.118h.283v.141c0 .12.019.142.118.142.1 0 .119.022.119.142 0 .14.002.142.26.142.245 0 .26.006.26.118 0 .113.012.118.283.118h.283v.142c0 .14.002.141.27.141h.27L2.15 80.016c-1.263.725-2.336 1.34-2.385 1.364-.071.038-1.235-.626-6.371-3.633z" fill="none"/><path d="M-6.607 77.747l-6.284-3.678-.029-.769c-.016-.423-.031-3.734-.035-7.36l-.005-6.59 2.004-1.17c1.102-.643 2.037-1.17 2.078-1.17.047 0 .074.043.074.12 0 .11.014.117.26.117.257 0 .26.002.26.142 0 .126.015.142.141.142.12 0 .142.018.142.118 0 .111.014.118.26.118.245 0 .26-.007.26-.118 0-.112.014-.118.26-.118.257 0 .26-.002.26-.142 0-.14.002-.142.26-.142.245 0 .26-.006.26-.118 0-.1.021-.118.14-.118.127 0 .143-.016.143-.142 0-.14.002-.142.26-.142.257 0 .26 0 .26-.141 0-.14.002-.142.26-.142.245 0 .259-.006.259-.118 0-.112.014-.118.26-.118.257 0 .26-.002.26-.142 0-.126.015-.142.141-.142.12 0 .142-.018.142-.118 0-.112.014-.118.26-.118.257 0 .26-.001.26-.142 0-.14.003-.141.26-.141s.26-.002.26-.142v-.142h.283c.271 0 .284-.005.284-.118 0-.095.023-.118.118-.118.1 0 .118-.022.118-.142 0-.14.002-.142.26-.142.245 0 .26-.006.26-.118 0-.113.012-.118.283-.118h.284v-.142c0-.12.018-.141.118-.141.1 0 .118-.022.118-.142 0-.14.002-.142.26-.142.245 0 .26-.006.26-.118 0-.113.012-.118.283-.118h.283v-.142c0-.14.003-.142.26-.142.246 0 .26-.006.26-.118 0-.094.024-.118.118-.118.1 0 .118-.022.118-.142 0-.138.005-.141.24-.141.227 0 .369.075 2.97 1.57 1.502.865 2.713 1.579 2.69 1.587-.022.009-.041.078-.041.154 0 .137-.002.138-.283.138-.271 0-.284.005-.284.118 0 .112-.014.118-.26.118-.257 0-.26.001-.26.142 0 .14-.002.141-.26.141-.257 0-.26.002-.26.142 0 .126-.015.142-.141.142-.12 0-.142.018-.142.118 0 .112-.014.118-.26.118-.257 0-.26.002-.26.142 0 .14-.002.142-.26.142-.245 0-.26.006-.26.118 0 .111-.013.118-.26.118-.256 0-.259.001-.259.142 0 .126-.016.141-.142.141s-.141.016-.141.142c0 .14-.003.142-.26.142-.246 0-.26.006-.26.118 0 .112-.014.118-.26.118-.257 0-.26.001-.26.142 0 .14-.003.142-.26.142-.245 0-.26.006-.26.118 0 .1-.022.118-.141.118-.126 0-.142.016-.142.142 0 .14-.003.141-.256.141-.16 0-.263.022-.275.058-.013.038-.136-.012-.359-.144-.187-.111-.355-.194-.375-.184L-3.5 60.982l-3.177 1.86v2.365c0 1.3.014 3.018.031 3.819l.031 1.455 2.733 1.64 2.733 1.639v2.008h.26c.257 0 .26.001.26.142 0 .126.015.141.141.141.12 0 .142.019.142.119 0 .111.014.118.26.118.257 0 .26.001.26.141 0 .14.002.142.26.142.257 0 .26.002.26.142v.142h.283c.27 0 .283.005.283.118 0 .094.024.118.118.118.1 0 .119.022.119.142 0 .14.002.141.26.141.245 0 .26.007.26.119 0 .112.012.118.283.118h.283v.141c0 .12.019.142.118.142.1 0 .119.022.119.142 0 .14.002.142.26.142.245 0 .26.006.26.118 0 .113.012.118.283.118h.283v.142c0 .14.002.141.27.141h.27L2.15 80.016c-1.263.725-2.336 1.34-2.385 1.364-.071.038-1.235-.626-6.371-3.633z" fill="none"/><g fill-opacity=".995"><path d="M34.412 52.554L21.56 60.067l.048 14.835 12.756 7.465 12.993-7.465-.141-14.977zm0 7.466l6.473 3.78.047 7.511-6.615 3.544-6.142-3.685-.047-7.465zM14.851 27.23L2 34.742l.048 14.836 12.756 7.465 12.993-7.465-.142-14.977zm0 7.465l6.473 3.78.047 7.512-6.614 3.544-6.142-3.686-.047-7.465zM53.688 27.23l-12.85 7.512.047 14.836 12.756 7.465 12.993-7.465-.142-14.977zm0 7.465l6.473 3.78.047 7.512-6.614 3.544-6.142-3.686-.047-7.465zM34.317 2L21.466 9.512l.047 14.836 12.757 7.465 12.993-7.465-.142-14.977zm0 7.465l6.473 3.78.047 7.512-6.614 3.544-6.143-3.686-.047-7.465z"/><path d="M15.276 81.824L12.3 86.832l17.576 10.111.189 31.608 8.93.142.047-31.608L56.57 86.974l-2.882-5.008-17.481 10.11h-3.26z"/></g></svg>