<?xml version="1.0" standalone="no"?>
<!DOCTYPE svg PUBLIC "-//W3C//DTD SVG 20010904//EN"
 "http://www.w3.org/TR/2001/REC-SVG-20010904/DTD/svg10.dtd">
<svg version="1.0" xmlns="http://www.w3.org/2000/svg"
 width="512.000000pt" height="512.000000pt" viewBox="0 0 512.000000 512.000000"
 preserveAspectRatio="xMidYMid meet">
<metadata>
Created by potrace 1.11, written by Peter Selinger 2001-2013
</metadata>
<g transform="translate(0.000000,512.000000) scale(0.100000,-0.100000)"
fill="#000000" stroke="none">
<path d="M0 2560 l0 -2560 2560 0 2560 0 0 2560 0 2560 -2560 0 -2560 0 0
-2560z m3092 2059 c17 6 33 11 34 11 2 0 4 -119 4 -265 0 -146 -2 -265 -5
-265 -4 0 -18 6 -34 14 -26 14 -32 12 -122 -40 -52 -31 -116 -68 -144 -83
-109 -61 -130 -73 -139 -82 -13 -11 -49 -12 -62 0 -5 4 -34 22 -64 38 -84 46
-132 74 -160 92 -14 9 -50 30 -80 45 -30 16 -61 33 -68 39 -9 7 -12 65 -10
249 l3 239 140 81 c77 44 154 88 170 98 17 9 45 26 63 37 l33 21 205 -120
c194 -113 206 -119 236 -109z m369 -693 c103 -34 118 -41 262 -124 l127 -74 0
-270 0 -269 -29 17 c-28 17 -29 17 -137 -46 -60 -34 -124 -71 -141 -81 -18
-11 -50 -29 -70 -41 -63 -35 -88 -48 -96 -48 -5 0 -98 52 -208 116 l-199 116
0 242 0 241 58 33 c52 29 95 54 195 111 20 11 54 31 75 42 20 12 48 30 62 40
14 10 26 19 26 19 1 0 35 -11 75 -24z m-1385 -1916 c36 -22 70 -40 75 -40 5 0
9 -4 9 -9 0 -5 8 -11 18 -14 9 -4 40 -20 67 -37 28 -17 57 -33 65 -37 8 -4 17
-9 20 -12 3 -3 16 -12 30 -20 14 -8 85 -50 158 -93 l132 -78 63 7 c55 5 80 16
212 93 83 48 167 97 188 109 20 12 53 30 72 41 49 28 91 52 158 90 34 19 62
29 67 24 5 -5 32 -49 59 -99 l50 -89 -67 -39 c-82 -48 -121 -71 -169 -98 -21
-12 -42 -25 -48 -29 -5 -4 -27 -17 -47 -29 -72 -40 -146 -83 -241 -138 l-68
-40 1 -579 0 -579 -169 3 -169 3 -7 362 c-3 199 -5 460 -3 580 2 119 0 217 -5
217 -4 0 -24 10 -45 23 -20 13 -62 37 -92 54 -30 17 -78 43 -105 59 -28 16
-126 71 -218 123 -92 51 -167 96 -167 100 0 3 23 46 50 95 28 49 50 95 50 103
0 19 3 18 76 -27z"/>
<path d="M2657 4667 c4 -29 1 -34 -34 -53 -55 -30 -87 -48 -93 -54 -10 -10
-65 -41 -82 -47 -16 -5 -18 -21 -18 -148 l0 -143 -30 -7 c-16 -4 -30 -10 -30
-14 0 -5 63 -45 141 -89 l140 -82 117 67 c64 37 129 75 145 85 l27 19 0 172 0
172 -53 29 c-28 16 -88 51 -133 78 -45 26 -86 48 -92 48 -7 0 -9 -13 -5 -33z"/>
<path d="M3310 3759 c-36 -21 -81 -46 -100 -56 -19 -9 -37 -19 -40 -22 -3 -4
-18 -14 -35 -23 -39 -22 -42 -36 -11 -48 l26 -10 0 -139 0 -140 119 -68 c113
-65 119 -69 114 -95 -3 -16 -3 -28 0 -28 4 0 28 13 55 29 26 15 68 39 93 53
24 14 64 37 89 51 l45 25 0 173 0 173 -140 83 c-77 45 -142 82 -145 82 -3 -1
-34 -18 -70 -40z"/>
</g>
</svg>
